<mxfile host="app.diagrams.net" modified="2023-12-22T00:09:06.568Z" agent="Mozilla/5.0 (Windows NT 10.0; Win64; x64; rv:121.0) Gecko/20100101 Firefox/121.0" etag="zHC8XmwHIKOXC3EXnuKS" version="22.1.11" type="github">
  <diagram name="Page-1" id="jLFNf9gIFpi16mCr7_2a">
    <mxGraphModel dx="794" dy="414" grid="1" gridSize="10" guides="1" tooltips="1" connect="1" arrows="1" fold="1" page="1" pageScale="1" pageWidth="850" pageHeight="1100" math="0" shadow="0">
      <root>
        <mxCell id="0" />
        <mxCell id="1" parent="0" />
        <mxCell id="gzHCEhPq8K2d0F9eEzQF-3" value="" style="edgeStyle=orthogonalEdgeStyle;rounded=0;orthogonalLoop=1;jettySize=auto;html=1;" edge="1" parent="1">
          <mxGeometry relative="1" as="geometry">
            <mxPoint x="180" y="110" as="sourcePoint" />
            <mxPoint x="180" y="170" as="targetPoint" />
          </mxGeometry>
        </mxCell>
        <mxCell id="gzHCEhPq8K2d0F9eEzQF-19" value="" style="edgeStyle=orthogonalEdgeStyle;rounded=0;orthogonalLoop=1;jettySize=auto;html=1;" edge="1" parent="1">
          <mxGeometry relative="1" as="geometry">
            <mxPoint x="180" y="640" as="sourcePoint" />
            <mxPoint x="180" y="760" as="targetPoint" />
          </mxGeometry>
        </mxCell>
        <mxCell id="gzHCEhPq8K2d0F9eEzQF-29" value="" style="strokeWidth=2;html=1;shape=mxgraph.flowchart.start_2;whiteSpace=wrap;" vertex="1" parent="1">
          <mxGeometry x="130" y="10" width="100" height="100" as="geometry" />
        </mxCell>
        <mxCell id="gzHCEhPq8K2d0F9eEzQF-30" value="" style="strokeWidth=2;html=1;shape=mxgraph.flowchart.terminator;whiteSpace=wrap;" vertex="1" parent="1">
          <mxGeometry x="130" y="760" width="100" height="60" as="geometry" />
        </mxCell>
        <mxCell id="gzHCEhPq8K2d0F9eEzQF-37" value="" style="edgeStyle=orthogonalEdgeStyle;rounded=0;orthogonalLoop=1;jettySize=auto;html=1;" edge="1" parent="1" source="gzHCEhPq8K2d0F9eEzQF-31" target="gzHCEhPq8K2d0F9eEzQF-32">
          <mxGeometry relative="1" as="geometry" />
        </mxCell>
        <mxCell id="gzHCEhPq8K2d0F9eEzQF-44" value="" style="edgeStyle=orthogonalEdgeStyle;rounded=0;orthogonalLoop=1;jettySize=auto;html=1;entryX=0.5;entryY=0;entryDx=0;entryDy=0;entryPerimeter=0;" edge="1" parent="1" source="gzHCEhPq8K2d0F9eEzQF-31" target="gzHCEhPq8K2d0F9eEzQF-36">
          <mxGeometry relative="1" as="geometry">
            <mxPoint x="180" y="360" as="targetPoint" />
          </mxGeometry>
        </mxCell>
        <mxCell id="gzHCEhPq8K2d0F9eEzQF-31" value="" style="strokeWidth=2;html=1;shape=mxgraph.flowchart.decision;whiteSpace=wrap;" vertex="1" parent="1">
          <mxGeometry x="130" y="170" width="100" height="100" as="geometry" />
        </mxCell>
        <mxCell id="gzHCEhPq8K2d0F9eEzQF-39" value="" style="edgeStyle=orthogonalEdgeStyle;rounded=0;orthogonalLoop=1;jettySize=auto;html=1;" edge="1" parent="1" source="gzHCEhPq8K2d0F9eEzQF-32" target="gzHCEhPq8K2d0F9eEzQF-38">
          <mxGeometry relative="1" as="geometry" />
        </mxCell>
        <mxCell id="gzHCEhPq8K2d0F9eEzQF-40" value="" style="edgeStyle=orthogonalEdgeStyle;rounded=0;orthogonalLoop=1;jettySize=auto;html=1;" edge="1" parent="1" source="gzHCEhPq8K2d0F9eEzQF-32" target="gzHCEhPq8K2d0F9eEzQF-33">
          <mxGeometry relative="1" as="geometry" />
        </mxCell>
        <mxCell id="gzHCEhPq8K2d0F9eEzQF-32" value="" style="strokeWidth=2;html=1;shape=mxgraph.flowchart.decision;whiteSpace=wrap;" vertex="1" parent="1">
          <mxGeometry x="310" y="170" width="100" height="100" as="geometry" />
        </mxCell>
        <mxCell id="gzHCEhPq8K2d0F9eEzQF-42" value="" style="edgeStyle=orthogonalEdgeStyle;rounded=0;orthogonalLoop=1;jettySize=auto;html=1;" edge="1" parent="1" source="gzHCEhPq8K2d0F9eEzQF-33" target="gzHCEhPq8K2d0F9eEzQF-41">
          <mxGeometry relative="1" as="geometry" />
        </mxCell>
        <mxCell id="gzHCEhPq8K2d0F9eEzQF-54" style="edgeStyle=none;rounded=0;orthogonalLoop=1;jettySize=auto;html=1;exitX=0.5;exitY=1;exitDx=0;exitDy=0;exitPerimeter=0;" edge="1" parent="1">
          <mxGeometry relative="1" as="geometry">
            <mxPoint x="680" y="480" as="targetPoint" />
            <mxPoint x="360" y="480" as="sourcePoint" />
          </mxGeometry>
        </mxCell>
        <mxCell id="gzHCEhPq8K2d0F9eEzQF-56" style="edgeStyle=none;rounded=0;orthogonalLoop=1;jettySize=auto;html=1;exitX=0.5;exitY=1;exitDx=0;exitDy=0;exitPerimeter=0;" edge="1" parent="1" source="gzHCEhPq8K2d0F9eEzQF-33">
          <mxGeometry relative="1" as="geometry">
            <mxPoint x="360" y="480" as="targetPoint" />
          </mxGeometry>
        </mxCell>
        <mxCell id="gzHCEhPq8K2d0F9eEzQF-33" value="" style="strokeWidth=2;html=1;shape=mxgraph.flowchart.decision;whiteSpace=wrap;" vertex="1" parent="1">
          <mxGeometry x="310" y="340" width="100" height="100" as="geometry" />
        </mxCell>
        <mxCell id="gzHCEhPq8K2d0F9eEzQF-46" value="" style="edgeStyle=orthogonalEdgeStyle;rounded=0;orthogonalLoop=1;jettySize=auto;html=1;" edge="1" parent="1" source="gzHCEhPq8K2d0F9eEzQF-36" target="gzHCEhPq8K2d0F9eEzQF-45">
          <mxGeometry relative="1" as="geometry" />
        </mxCell>
        <mxCell id="gzHCEhPq8K2d0F9eEzQF-36" value="" style="strokeWidth=2;html=1;shape=mxgraph.flowchart.decision;whiteSpace=wrap;" vertex="1" parent="1">
          <mxGeometry x="130" y="540" width="100" height="100" as="geometry" />
        </mxCell>
        <mxCell id="gzHCEhPq8K2d0F9eEzQF-50" style="edgeStyle=orthogonalEdgeStyle;rounded=0;orthogonalLoop=1;jettySize=auto;html=1;exitX=1;exitY=0.5;exitDx=0;exitDy=0;" edge="1" parent="1" source="gzHCEhPq8K2d0F9eEzQF-38">
          <mxGeometry relative="1" as="geometry">
            <mxPoint x="680" y="720" as="targetPoint" />
          </mxGeometry>
        </mxCell>
        <mxCell id="gzHCEhPq8K2d0F9eEzQF-38" value="" style="shape=parallelogram;perimeter=parallelogramPerimeter;whiteSpace=wrap;html=1;fixedSize=1;strokeWidth=2;" vertex="1" parent="1">
          <mxGeometry x="480" y="190" width="120" height="60" as="geometry" />
        </mxCell>
        <mxCell id="gzHCEhPq8K2d0F9eEzQF-51" style="edgeStyle=orthogonalEdgeStyle;rounded=0;orthogonalLoop=1;jettySize=auto;html=1;exitX=1;exitY=0.5;exitDx=0;exitDy=0;" edge="1" parent="1" source="gzHCEhPq8K2d0F9eEzQF-41">
          <mxGeometry relative="1" as="geometry">
            <mxPoint x="680" y="390" as="targetPoint" />
          </mxGeometry>
        </mxCell>
        <mxCell id="gzHCEhPq8K2d0F9eEzQF-41" value="" style="shape=parallelogram;perimeter=parallelogramPerimeter;whiteSpace=wrap;html=1;fixedSize=1;strokeWidth=2;" vertex="1" parent="1">
          <mxGeometry x="480" y="360" width="120" height="60" as="geometry" />
        </mxCell>
        <mxCell id="gzHCEhPq8K2d0F9eEzQF-48" value="" style="edgeStyle=orthogonalEdgeStyle;rounded=0;orthogonalLoop=1;jettySize=auto;html=1;" edge="1" parent="1" source="gzHCEhPq8K2d0F9eEzQF-45">
          <mxGeometry relative="1" as="geometry">
            <mxPoint x="360" y="720" as="targetPoint" />
          </mxGeometry>
        </mxCell>
        <mxCell id="gzHCEhPq8K2d0F9eEzQF-45" value="" style="shape=parallelogram;perimeter=parallelogramPerimeter;whiteSpace=wrap;html=1;fixedSize=1;strokeWidth=2;" vertex="1" parent="1">
          <mxGeometry x="300" y="560" width="120" height="60" as="geometry" />
        </mxCell>
        <mxCell id="gzHCEhPq8K2d0F9eEzQF-55" value="" style="endArrow=none;html=1;rounded=0;" edge="1" parent="1">
          <mxGeometry relative="1" as="geometry">
            <mxPoint x="180" y="720" as="sourcePoint" />
            <mxPoint x="680" y="720" as="targetPoint" />
          </mxGeometry>
        </mxCell>
      </root>
    </mxGraphModel>
  </diagram>
</mxfile>
